<svg width="250" height="48" viewBox="0 0 250 48" fill="none" xmlns="http://www.w3.org/2000/svg">
<rect width="250" height="48" rx="8" fill="#DA2535"/>
<path d="M52 24V34H36V24" stroke="#F9F9F9" stroke-width="1.4" stroke-linecap="round" stroke-linejoin="round"/>
<path d="M54 19H34V24H54V19Z" stroke="#F9F9F9" stroke-width="1.4" stroke-linecap="round" stroke-linejoin="round"/>
<path d="M44 34V19" stroke="#F9F9F9" stroke-width="1.4" stroke-linecap="round" stroke-linejoin="round"/>
<path d="M44 19H39.5C38.837 19 38.2011 18.7366 37.7322 18.2678C37.2634 17.7989 37 17.163 37 16.5C37 15.837 37.2634 15.2011 37.7322 14.7322C38.2011 14.2634 38.837 14 39.5 14C43 14 44 19 44 19Z" stroke="#F9F9F9" stroke-width="1.4" stroke-linecap="round" stroke-linejoin="round"/>
<path d="M44 19H48.5C49.163 19 49.7989 18.7366 50.2678 18.2678C50.7366 17.7989 51 17.163 51 16.5C51 15.837 50.7366 15.2011 50.2678 14.7322C49.7989 14.2634 49.163 14 48.5 14C45 14 44 19 44 19Z" stroke="#F9F9F9" stroke-width="1.4" stroke-linecap="round" stroke-linejoin="round"/>
<path d="M74 18.832V20.64H69.344V23.504H72.912V25.28H69.344V30H67.104V18.832H74ZM75.0124 25.536C75.0124 24.64 75.1884 23.8453 75.5404 23.152C75.903 22.4587 76.3884 21.9253 76.9964 21.552C77.615 21.1787 78.303 20.992 79.0604 20.992C79.7217 20.992 80.2977 21.1253 80.7884 21.392C81.2897 21.6587 81.6897 21.9947 81.9884 22.4V21.136H84.2444V30H81.9884V28.704C81.7004 29.12 81.3004 29.4667 80.7884 29.744C80.287 30.0107 79.7057 30.144 79.0444 30.144C78.2977 30.144 77.615 29.952 76.9964 29.568C76.3884 29.184 75.903 28.6453 75.5404 27.952C75.1884 27.248 75.0124 26.4427 75.0124 25.536ZM81.9884 25.568C81.9884 25.024 81.8817 24.56 81.6684 24.176C81.455 23.7813 81.167 23.4827 80.8044 23.28C80.4417 23.0667 80.0524 22.96 79.6364 22.96C79.2204 22.96 78.8364 23.0613 78.4844 23.264C78.1324 23.4667 77.8444 23.7653 77.6204 24.16C77.407 24.544 77.3004 25.0027 77.3004 25.536C77.3004 26.0693 77.407 26.5387 77.6204 26.944C77.8444 27.3387 78.1324 27.6427 78.4844 27.856C78.847 28.0693 79.231 28.176 79.6364 28.176C80.0524 28.176 80.4417 28.0747 80.8044 27.872C81.167 27.6587 81.455 27.36 81.6684 26.976C81.8817 26.5813 81.9884 26.112 81.9884 25.568ZM88.4801 28.16H92.4321V30H85.9361V28.192L89.8081 22.976H85.9521V21.136H92.3841V22.944L88.4801 28.16ZM102.407 25.376C102.407 25.696 102.385 25.984 102.343 26.24H95.8625C95.9158 26.88 96.1398 27.3813 96.5345 27.744C96.9292 28.1067 97.4145 28.288 97.9905 28.288C98.8225 28.288 99.4145 27.9307 99.7665 27.216H102.183C101.927 28.0693 101.436 28.7733 100.711 29.328C99.9852 29.872 99.0945 30.144 98.0385 30.144C97.1852 30.144 96.4172 29.9573 95.7345 29.584C95.0625 29.2 94.5345 28.6613 94.1505 27.968C93.7772 27.2747 93.5905 26.4747 93.5905 25.568C93.5905 24.6507 93.7772 23.8453 94.1505 23.152C94.5238 22.4587 95.0465 21.9253 95.7185 21.552C96.3905 21.1787 97.1638 20.992 98.0385 20.992C98.8812 20.992 99.6332 21.1733 100.295 21.536C100.967 21.8987 101.484 22.416 101.847 23.088C102.22 23.7493 102.407 24.512 102.407 25.376ZM100.087 24.736C100.076 24.16 99.8678 23.7013 99.4625 23.36C99.0572 23.008 98.5612 22.832 97.9745 22.832C97.4198 22.832 96.9505 23.0027 96.5665 23.344C96.1932 23.6747 95.9638 24.1387 95.8785 24.736H100.087ZM106.282 22.512C106.57 22.0427 106.943 21.6747 107.402 21.408C107.871 21.1413 108.404 21.008 109.002 21.008V23.36H108.41C107.706 23.36 107.172 23.5253 106.81 23.856C106.458 24.1867 106.282 24.7627 106.282 25.584V30H104.042V21.136H106.282V22.512ZM122.691 21.136V30H120.435V28.88C120.147 29.264 119.768 29.568 119.299 29.792C118.84 30.0053 118.339 30.112 117.795 30.112C117.101 30.112 116.488 29.968 115.955 29.68C115.421 29.3813 115 28.9493 114.691 28.384C114.392 27.808 114.243 27.1253 114.243 26.336V21.136H116.483V26.016C116.483 26.72 116.659 27.264 117.011 27.648C117.363 28.0213 117.843 28.208 118.451 28.208C119.069 28.208 119.555 28.0213 119.907 27.648C120.259 27.264 120.435 26.72 120.435 26.016V21.136H122.691ZM135.909 21.008C136.997 21.008 137.872 21.344 138.533 22.016C139.205 22.6773 139.541 23.6053 139.541 24.8V30H137.301V25.104C137.301 24.4107 137.125 23.8827 136.773 23.52C136.421 23.1467 135.941 22.96 135.333 22.96C134.725 22.96 134.24 23.1467 133.877 23.52C133.525 23.8827 133.349 24.4107 133.349 25.104V30H131.109V25.104C131.109 24.4107 130.933 23.8827 130.581 23.52C130.229 23.1467 129.749 22.96 129.141 22.96C128.522 22.96 128.032 23.1467 127.669 23.52C127.317 23.8827 127.141 24.4107 127.141 25.104V30H124.901V21.136H127.141V22.208C127.429 21.8347 127.797 21.5413 128.245 21.328C128.704 21.1147 129.205 21.008 129.749 21.008C130.442 21.008 131.061 21.1573 131.605 21.456C132.149 21.744 132.57 22.16 132.869 22.704C133.157 22.192 133.573 21.7813 134.117 21.472C134.672 21.1627 135.269 21.008 135.909 21.008ZM141.09 25.536C141.09 24.64 141.266 23.8453 141.618 23.152C141.981 22.4587 142.467 21.9253 143.075 21.552C143.693 21.1787 144.381 20.992 145.139 20.992C145.8 20.992 146.376 21.1253 146.867 21.392C147.368 21.6587 147.768 21.9947 148.067 22.4V21.136H150.323V30H148.067V28.704C147.779 29.12 147.379 29.4667 146.867 29.744C146.365 30.0107 145.784 30.144 145.123 30.144C144.376 30.144 143.693 29.952 143.075 29.568C142.467 29.184 141.981 28.6453 141.618 27.952C141.266 27.248 141.09 26.4427 141.09 25.536ZM148.067 25.568C148.067 25.024 147.96 24.56 147.747 24.176C147.533 23.7813 147.245 23.4827 146.883 23.28C146.52 23.0667 146.131 22.96 145.715 22.96C145.299 22.96 144.915 23.0613 144.562 23.264C144.211 23.4667 143.923 23.7653 143.699 24.16C143.485 24.544 143.379 25.0027 143.379 25.536C143.379 26.0693 143.485 26.5387 143.699 26.944C143.923 27.3387 144.211 27.6427 144.562 27.856C144.925 28.0693 145.309 28.176 145.715 28.176C146.131 28.176 146.52 28.0747 146.883 27.872C147.245 27.6587 147.533 27.36 147.747 26.976C147.96 26.5813 148.067 26.112 148.067 25.568ZM155.747 25.536C155.747 24.64 155.923 23.8453 156.275 23.152C156.637 22.4587 157.128 21.9253 157.747 21.552C158.365 21.1787 159.053 20.992 159.811 20.992C160.387 20.992 160.936 21.12 161.459 21.376C161.981 21.6213 162.397 21.952 162.707 22.368V18.16H164.979V30H162.707V28.688C162.429 29.1253 162.04 29.4773 161.539 29.744C161.037 30.0107 160.456 30.144 159.795 30.144C159.048 30.144 158.365 29.952 157.747 29.568C157.128 29.184 156.637 28.6453 156.275 27.952C155.923 27.248 155.747 26.4427 155.747 25.536ZM162.723 25.568C162.723 25.024 162.616 24.56 162.403 24.176C162.189 23.7813 161.901 23.4827 161.539 23.28C161.176 23.0667 160.787 22.96 160.371 22.96C159.955 22.96 159.571 23.0613 159.219 23.264C158.867 23.4667 158.579 23.7653 158.355 24.16C158.141 24.544 158.035 25.0027 158.035 25.536C158.035 26.0693 158.141 26.5387 158.355 26.944C158.579 27.3387 158.867 27.6427 159.219 27.856C159.581 28.0693 159.965 28.176 160.371 28.176C160.787 28.176 161.176 28.0747 161.539 27.872C161.901 27.6587 162.189 27.36 162.403 26.976C162.616 26.5813 162.723 26.112 162.723 25.568ZM171.103 30.144C170.249 30.144 169.481 29.9573 168.799 29.584C168.116 29.2 167.577 28.6613 167.183 27.968C166.799 27.2747 166.607 26.4747 166.607 25.568C166.607 24.6613 166.804 23.8613 167.199 23.168C167.604 22.4747 168.153 21.9413 168.847 21.568C169.54 21.184 170.313 20.992 171.167 20.992C172.02 20.992 172.793 21.184 173.487 21.568C174.18 21.9413 174.724 22.4747 175.119 23.168C175.524 23.8613 175.727 24.6613 175.727 25.568C175.727 26.4747 175.519 27.2747 175.102 27.968C174.697 28.6613 174.143 29.2 173.439 29.584C172.745 29.9573 171.967 30.144 171.103 30.144ZM171.103 28.192C171.508 28.192 171.887 28.096 172.239 27.904C172.601 27.7013 172.889 27.4027 173.103 27.008C173.316 26.6133 173.423 26.1333 173.423 25.568C173.423 24.7253 173.199 24.08 172.751 23.632C172.313 23.1733 171.775 22.944 171.135 22.944C170.495 22.944 169.956 23.1733 169.519 23.632C169.092 24.08 168.879 24.7253 168.879 25.568C168.879 26.4107 169.087 27.0613 169.503 27.52C169.929 27.968 170.463 28.192 171.103 28.192ZM176.794 25.536C176.794 24.64 176.97 23.8453 177.322 23.152C177.684 22.4587 178.17 21.9253 178.778 21.552C179.396 21.1787 180.084 20.992 180.842 20.992C181.503 20.992 182.079 21.1253 182.57 21.392C183.071 21.6587 183.471 21.9947 183.77 22.4V21.136H186.026V30H183.77V28.704C183.482 29.12 183.082 29.4667 182.57 29.744C182.068 30.0107 181.487 30.144 180.826 30.144C180.079 30.144 179.396 29.952 178.778 29.568C178.17 29.184 177.684 28.6453 177.322 27.952C176.97 27.248 176.794 26.4427 176.794 25.536ZM183.77 25.568C183.77 25.024 183.663 24.56 183.45 24.176C183.236 23.7813 182.948 23.4827 182.586 23.28C182.223 23.0667 181.834 22.96 181.418 22.96C181.002 22.96 180.618 23.0613 180.266 23.264C179.914 23.4667 179.626 23.7653 179.402 24.16C179.188 24.544 179.082 25.0027 179.082 25.536C179.082 26.0693 179.188 26.5387 179.402 26.944C179.626 27.3387 179.914 27.6427 180.266 27.856C180.628 28.0693 181.012 28.176 181.418 28.176C181.834 28.176 182.223 28.0747 182.586 27.872C182.948 27.6587 183.236 27.36 183.45 26.976C183.663 26.5813 183.77 26.112 183.77 25.568ZM192.005 28.224C192.912 28.224 193.504 27.8187 193.781 27.008H196.197C195.973 27.872 195.557 28.576 194.949 29.12C194.352 29.664 193.6 29.9893 192.693 30.096V30.72C193.28 30.72 193.771 30.8693 194.165 31.168C194.571 31.4667 194.773 31.8987 194.773 32.464C194.773 33.04 194.565 33.4827 194.149 33.792C193.744 34.1013 193.243 34.256 192.645 34.256H190.373V32.944H192.277C192.533 32.944 192.725 32.9067 192.853 32.832C192.992 32.7573 193.061 32.624 193.061 32.432C193.061 32.24 192.992 32.1067 192.853 32.032C192.725 31.968 192.533 31.936 192.277 31.936H191.285V30.096C190.56 29.9893 189.92 29.7387 189.365 29.344C188.821 28.9387 188.395 28.416 188.085 27.776C187.787 27.1253 187.637 26.3893 187.637 25.568C187.637 24.6507 187.824 23.8507 188.197 23.168C188.571 22.4747 189.088 21.9413 189.749 21.568C190.411 21.184 191.168 20.992 192.021 20.992C193.12 20.992 194.027 21.2693 194.741 21.824C195.467 22.368 195.952 23.136 196.197 24.128H193.781C193.653 23.744 193.435 23.4453 193.125 23.232C192.827 23.008 192.453 22.896 192.005 22.896C191.365 22.896 190.859 23.1307 190.485 23.6C190.112 24.0587 189.925 24.7147 189.925 25.568C189.925 26.4107 190.112 27.0667 190.485 27.536C190.859 27.9947 191.365 28.224 192.005 28.224ZM197.262 25.536C197.262 24.64 197.438 23.8453 197.79 23.152C198.153 22.4587 198.638 21.9253 199.246 21.552C199.865 21.1787 200.553 20.992 201.31 20.992C201.972 20.992 202.548 21.1253 203.038 21.392C203.54 21.6587 203.94 21.9947 204.238 22.4V21.136H206.494V30H204.238V28.704C203.95 29.12 203.55 29.4667 203.038 29.744C202.537 30.0107 201.956 30.144 201.294 30.144C200.548 30.144 199.865 29.952 199.246 29.568C198.638 29.184 198.153 28.6453 197.79 27.952C197.438 27.248 197.262 26.4427 197.262 25.536ZM204.238 25.568C204.238 25.024 204.132 24.56 203.918 24.176C203.705 23.7813 203.417 23.4827 203.054 23.28C202.692 23.0667 202.302 22.96 201.886 22.96C201.47 22.96 201.086 23.0613 200.734 23.264C200.382 23.4667 200.094 23.7653 199.87 24.16C199.657 24.544 199.55 25.0027 199.55 25.536C199.55 26.0693 199.657 26.5387 199.87 26.944C200.094 27.3387 200.382 27.6427 200.734 27.856C201.097 28.0693 201.481 28.176 201.886 28.176C202.302 28.176 202.692 28.0747 203.054 27.872C203.417 27.6587 203.705 27.36 203.918 26.976C204.132 26.5813 204.238 26.112 204.238 25.568ZM199.31 20.288C199.406 19.584 199.625 19.0613 199.966 18.72C200.318 18.368 200.761 18.192 201.294 18.192C201.518 18.192 201.716 18.2293 201.886 18.304C202.057 18.368 202.249 18.464 202.462 18.592C202.782 18.7947 203.049 18.896 203.262 18.896C203.657 18.896 203.886 18.6667 203.95 18.208H205.15C205.054 18.912 204.83 19.44 204.478 19.792C204.137 20.1333 203.7 20.304 203.166 20.304C202.942 20.304 202.745 20.272 202.574 20.208C202.404 20.1333 202.212 20.032 201.998 19.904C201.689 19.6907 201.422 19.584 201.198 19.584C200.804 19.584 200.569 19.8187 200.494 20.288H199.31ZM212.618 30.144C211.765 30.144 210.997 29.9573 210.314 29.584C209.631 29.2 209.093 28.6613 208.698 27.968C208.314 27.2747 208.122 26.4747 208.122 25.568C208.122 24.6613 208.319 23.8613 208.714 23.168C209.119 22.4747 209.669 21.9413 210.362 21.568C211.055 21.184 211.829 20.992 212.682 20.992C213.535 20.992 214.309 21.184 215.002 21.568C215.695 21.9413 216.239 22.4747 216.634 23.168C217.039 23.8613 217.242 24.6613 217.242 25.568C217.242 26.4747 217.034 27.2747 216.618 27.968C216.213 28.6613 215.658 29.2 214.954 29.584C214.261 29.9573 213.482 30.144 212.618 30.144ZM212.618 28.192C213.023 28.192 213.402 28.096 213.754 27.904C214.117 27.7013 214.405 27.4027 214.618 27.008C214.831 26.6133 214.938 26.1333 214.938 25.568C214.938 24.7253 214.714 24.08 214.266 23.632C213.829 23.1733 213.29 22.944 212.65 22.944C212.01 22.944 211.471 23.1733 211.034 23.632C210.607 24.08 210.394 24.7253 210.394 25.568C210.394 26.4107 210.602 27.0613 211.018 27.52C211.445 27.968 211.978 28.192 212.618 28.192Z" fill="#F9F9F9"/>
</svg>
